<svg xmlns="http://www.w3.org/2000/svg" viewBox="0 0 64 64">
  <defs>
    <linearGradient id="rocketBody" x1="0%" y1="0%" x2="100%" y2="100%">
      <stop offset="0%" stop-color="#f7fbff"/>
      <stop offset="100%" stop-color="#9fc5ff"/>
    </linearGradient>
    <linearGradient id="rocketFlame" x1="50%" y1="0%" x2="50%" y2="100%">
      <stop offset="0%" stop-color="#fff3ba"/>
      <stop offset="100%" stop-color="#ff7c5c"/>
    </linearGradient>
  </defs>
  <rect width="64" height="64" rx="16" fill="#05070d"/>
  <circle cx="32" cy="32" r="24" fill="none" stroke="#8ce4ff" stroke-opacity=".18" stroke-width="1.5"/>
  <path d="M35 10c8 5 12 17 9 27L31 50 20 39c10-3 22-7 15-29Z" fill="url(#rocketBody)"/>
  <circle cx="34" cy="23" r="4.5" fill="#05070d" stroke="#8ce4ff" stroke-width="1.5"/>
  <path d="M23 38l-7 5 4-9 3 4Zm10 12 2 8 5-11-7 3Z" fill="#b6a8ff"/>
  <path d="M27 44c-1 5-4 8-8 10 2-5 5-8 8-10Z" fill="#8ab4ff"/>
  <path d="M37 41c4 5 6 9 6 13-5-3-8-6-10-10l4-3Z" fill="url(#rocketFlame)"/>
</svg>
