<?xml version="1.0" encoding="UTF-8"?>
<svg version="1.1" xmlns="http://www.w3.org/2000/svg" width="512" height="512">
<path d="M0 0 C1.01790619 0.00215515 2.03581238 0.0043103 3.08456421 0.00653076 C17.69363523 0.05620146 32.02575853 0.30709809 46.375 3.3125 C47.34985352 3.51117676 48.32470703 3.70985352 49.32910156 3.91455078 C97.7109774 14.03517194 141.69928269 35.9516877 177.375 70.3125 C178.3640332 71.26068604 178.3640332 71.26068604 179.37304688 72.22802734 C188.86130305 81.37247479 197.6012044 90.66984009 205.375 101.3125 C206.23306152 102.46355017 207.09113451 103.61459177 207.94921875 104.765625 C213.98736829 112.95680614 219.34595521 121.47054105 224.375 130.3125 C224.73948242 130.94430176 225.10396484 131.57610352 225.47949219 132.22705078 C247.08534998 169.97532572 256.85198095 212.74189997 256.6875 255.9375 C256.68534485 256.95540619 256.6831897 257.97331238 256.68096924 259.02206421 C256.63129854 273.63113523 256.38040191 287.96325853 253.375 302.3125 C253.07698486 303.77478027 253.07698486 303.77478027 252.77294922 305.26660156 C242.65232806 353.6484774 220.7358123 397.63678269 186.375 433.3125 C185.74287598 433.97185547 185.11075195 434.63121094 184.45947266 435.31054688 C175.31502521 444.79880305 166.01765991 453.5387044 155.375 461.3125 C154.22394983 462.17056152 153.07290823 463.02863451 151.921875 463.88671875 C143.73224019 469.92427396 135.22961724 475.30707302 126.375 480.3125 C125.66778809 480.7146875 124.96057617 481.116875 124.23193359 481.53125 C101.09654164 494.5566741 75.92537591 503.30551461 49.9375 508.625 C49.21860596 508.77235596 48.49971191 508.91971191 47.7590332 509.0715332 C33.08339502 511.86090125 18.55831162 512.66142619 3.64770508 512.62817383 C0.70811513 512.6250221 -2.2304558 512.64854926 -5.16992188 512.67382812 C-18.54306192 512.71848737 -31.43916711 511.51301542 -44.625 509.3125 C-46.33055054 509.03031616 -46.33055054 509.03031616 -48.07055664 508.74243164 C-91.33802759 500.97044532 -132.38793216 480.98345309 -165.625 452.3125 C-166.37007813 451.67828125 -167.11515625 451.0440625 -167.8828125 450.390625 C-181.38779833 438.57948485 -194.05918743 425.82889772 -204.625 411.3125 C-205.48149066 410.16255169 -206.33826433 409.01281411 -207.1953125 407.86328125 C-213.23534209 399.67315742 -218.61867614 391.16870382 -223.625 382.3125 C-224.0271875 381.60528809 -224.429375 380.89807617 -224.84375 380.16943359 C-237.8691741 357.03404164 -246.61801461 331.86287591 -251.9375 305.875 C-252.08485596 305.15610596 -252.23221191 304.43721191 -252.3840332 303.6965332 C-255.35789088 288.05024391 -255.99800362 272.57681954 -255.9375 256.6875 C-255.93534485 255.66959381 -255.9331897 254.65168762 -255.93096924 253.60293579 C-255.88129854 238.99386477 -255.63040191 224.66174147 -252.625 210.3125 C-252.42632324 209.33764648 -252.22764648 208.36279297 -252.02294922 207.35839844 C-241.90232806 158.9765226 -219.9858123 114.98821731 -185.625 79.3125 C-184.99287598 78.65314453 -184.36075195 77.99378906 -183.70947266 77.31445312 C-174.56502521 67.82619695 -165.26765991 59.0862956 -154.625 51.3125 C-153.47394983 50.45443848 -152.32290823 49.59636549 -151.171875 48.73828125 C-142.98224019 42.70072604 -134.47961724 37.31792698 -125.625 32.3125 C-124.91778809 31.9103125 -124.21057617 31.508125 -123.48193359 31.09375 C-100.34654164 18.0683259 -75.17537591 9.31948539 -49.1875 4 C-48.46860596 3.85264404 -47.74971191 3.70528809 -47.0090332 3.5534668 C-31.36274391 0.57960912 -15.88931954 -0.06050362 0 0 Z " fill="#FEEFAD" transform="translate(255.625,-0.3125)"/>
<path d="M0 0 C1.01790619 0.00215515 2.03581238 0.0043103 3.08456421 0.00653076 C27.6120534 0.08992398 53.43264195 1.70304113 76.375 11.3125 C73.53154099 14.15595901 70.04277339 14.91210212 66.3125 16.1875 C23.14094927 31.58829335 -17.42404964 60.01424707 -45.625 96.3125 C-46.29934082 97.16424805 -46.29934082 97.16424805 -46.98730469 98.03320312 C-55.55810842 108.88452539 -62.76261266 120.31983049 -69.625 132.3125 C-70.00108398 132.95477539 -70.37716797 133.59705078 -70.76464844 134.25878906 C-77.80301656 146.30662482 -82.75135831 159.27111491 -87.625 172.3125 C-87.93211914 173.1267041 -88.23923828 173.9409082 -88.55566406 174.77978516 C-96.14704406 195.33566476 -100.51401052 219.18354744 -100.94140625 241.0625 C-100.9725779 242.41057739 -100.9725779 242.41057739 -101.00437927 243.78588867 C-101.06923053 246.62802236 -101.12845696 249.47024033 -101.1875 252.3125 C-101.23074665 254.25131044 -101.27436279 256.19011268 -101.31835938 258.12890625 C-101.42484487 262.85668671 -101.52628947 267.58455107 -101.625 272.3125 C-100.36042969 272.46251465 -99.09585938 272.6125293 -97.79296875 272.76708984 C-88.89855128 273.82222525 -81.56147014 277.57517842 -75.625 284.3125 C-68.8196511 294.06831607 -67.60950465 302.6467551 -68.625 314.3125 C-70.53656353 322.87630462 -75.49052617 330.53667182 -82.875 335.3125 C-86.26973684 337.3125 -86.26973684 337.3125 -88.625 337.3125 C-76.5966476 370.14390723 -60.8405573 400.67538165 -36.625 426.3125 C-35.51572135 427.59977918 -34.41143909 428.89138284 -33.3125 430.1875 C-25.20497995 439.45591207 -16.36882807 447.78830844 -6.625 455.3125 C-6.02671387 455.7765625 -5.42842773 456.240625 -4.81201172 456.71875 C10.98479413 468.92699845 27.35931395 479.09741125 45.375 487.75 C46.35670166 488.22155518 47.33840332 488.69311035 48.34985352 489.17895508 C57.4867808 493.49371747 66.82005843 497.04575802 76.375 500.3125 C75.375 502.3125 75.375 502.3125 73.35986328 503.04272461 C72.48056152 503.26452393 71.60125977 503.48632324 70.6953125 503.71484375 C69.22106812 504.08863159 69.22106812 504.08863159 67.71704102 504.4699707 C66.65541748 504.72738037 65.59379395 504.98479004 64.5 505.25 C63.41968506 505.51578857 62.33937012 505.78157715 61.22631836 506.05541992 C51.67973146 508.34735984 42.109436 510.06327727 32.375 511.3125 C31.70820221 511.39982895 31.04140442 511.4871579 30.35440063 511.57713318 C24.62614712 512.27514085 18.97445711 512.48810719 13.20703125 512.515625 C12.25092453 512.52132507 11.29481781 512.52702515 10.30973816 512.53289795 C8.29024339 512.5422971 6.27073363 512.54886156 4.2512207 512.55273438 C1.24075499 512.56233025 -1.76899402 512.59335684 -4.77929688 512.625 C-18.29552518 512.69886788 -31.29906149 511.55030336 -44.625 509.3125 C-45.76138916 509.12429688 -46.89777832 508.93609375 -48.06860352 508.7421875 C-91.33502506 500.97962672 -132.39111203 480.98071007 -165.625 452.3125 C-166.37007813 451.67828125 -167.11515625 451.0440625 -167.8828125 450.390625 C-181.38779833 438.57948485 -194.05918743 425.82889772 -204.625 411.3125 C-205.48149066 410.16255169 -206.33826433 409.01281411 -207.1953125 407.86328125 C-213.23534209 399.67315742 -218.61867614 391.16870382 -223.625 382.3125 C-224.0271875 381.60528809 -224.429375 380.89807617 -224.84375 380.16943359 C-237.8691741 357.03404164 -246.61801461 331.86287591 -251.9375 305.875 C-252.08485596 305.15610596 -252.23221191 304.43721191 -252.3840332 303.6965332 C-255.35789088 288.05024391 -255.99800362 272.57681954 -255.9375 256.6875 C-255.93534485 255.66959381 -255.9331897 254.65168762 -255.93096924 253.60293579 C-255.88129854 238.99386477 -255.63040191 224.66174147 -252.625 210.3125 C-252.42632324 209.33764648 -252.22764648 208.36279297 -252.02294922 207.35839844 C-241.90232806 158.9765226 -219.9858123 114.98821731 -185.625 79.3125 C-184.99287598 78.65314453 -184.36075195 77.99378906 -183.70947266 77.31445312 C-174.56502521 67.82619695 -165.26765991 59.0862956 -154.625 51.3125 C-153.47394983 50.45443848 -152.32290823 49.59636549 -151.171875 48.73828125 C-142.98224019 42.70072604 -134.47961724 37.31792698 -125.625 32.3125 C-124.91778809 31.9103125 -124.21057617 31.508125 -123.48193359 31.09375 C-100.34654164 18.0683259 -75.17537591 9.31948539 -49.1875 4 C-48.46860596 3.85264404 -47.74971191 3.70528809 -47.0090332 3.5534668 C-31.36274391 0.57960912 -15.88931954 -0.06050362 0 0 Z " fill="#FEE97D" transform="translate(255.625,-0.3125)"/>
<path d="M0 0 C0.99 0.70125 1.98 1.4025 3 2.125 C13.18257026 10.9744761 20.78044493 24.60314359 22.22143555 38.06933594 C23.23281982 56.5028386 19.38039318 73.05919452 6.9375 87.1875 C-3.72092096 98.6745622 -17.89292932 105.29892241 -33.5078125 106.203125 C-51.3014771 106.43371245 -65.75127935 101.8010436 -78.78515625 89.31640625 C-90.64524886 76.91246459 -96.61345065 62.83895428 -96.5 45.625 C-96.49500488 44.62057861 -96.49000977 43.61615723 -96.48486328 42.58129883 C-96.29394217 34.43028411 -94.93698237 28.2282163 -91 21 C-90.55398438 20.12601563 -90.10796875 19.25203125 -89.6484375 18.3515625 C-81.12446261 2.87507178 -68.25033013 -6.2907687 -51.73046875 -11.75 C-33.85794091 -16.52484974 -14.43250603 -10.92030109 0 0 Z " fill="#FEE97D" transform="translate(364,142)"/>
<path d="M0 0 C6.3976606 29.05604187 2.71703231 56.48407717 -13 82 C-29.33210087 106.62426791 -53.57543503 122.31780492 -82.5 128.25 C-104.79056249 131.47626562 -125.93231938 127.97778534 -146 118 C-145.45762188 113.05198906 -143.18884658 109.59674635 -140.5625 105.5 C-140.11511475 104.79512451 -139.66772949 104.09024902 -139.20678711 103.36401367 C-135.21040037 97.15915266 -130.89571347 91.27242161 -126.24902344 85.54150391 C-125.04191622 84.05173163 -123.85263672 82.54756856 -122.6640625 81.04296875 C-109.9372982 65.40550914 -95.37810489 50.78890504 -79 39 C-77.85335128 38.14823199 -76.70753275 37.29534537 -75.5625 36.44140625 C-67.37089798 30.39396867 -58.86096602 25.00901588 -50 20 C-49.29278809 19.5978125 -48.58557617 19.195625 -47.85693359 18.78125 C-13.8341043 -0.37389471 -13.8341043 -0.37389471 0 0 Z " fill="#FEDF31" transform="translate(180,12)"/>
<path d="M0 0 C1.10854596 35.18606986 -6.81406916 72.60910383 -23 104 C-36.37130903 99.88722255 -45.5884944 90.14149874 -52.4921875 78.28515625 C-58.39815498 65.41749135 -59.92417662 49.02977 -55.203125 35.49487305 C-52.49106377 28.87125157 -48.83539022 23.24190533 -44 18 C-43.21882813 17.08347656 -43.21882813 17.08347656 -42.421875 16.1484375 C-31.58657266 4.20856551 -15.77700318 -1.02337318 0 0 Z " fill="#FEE97D" transform="translate(512,260)"/>
<path d="M0 0 C7.6667027 5.10611437 13.70344007 11.23371907 16.30078125 20.26171875 C18.0524407 29.00300959 17.00353439 36.30555686 12.98828125 44.32421875 C8.11767287 51.58697403 1.2698898 56.57173078 -7.01171875 59.32421875 C-15.44590876 60.20023365 -22.73539277 59.8473403 -30.01171875 55.32421875 C-30.72070312 54.88851562 -31.4296875 54.4528125 -32.16015625 54.00390625 C-38.63820259 49.59690818 -42.56770056 43.74128265 -45.01171875 36.32421875 C-46.22010486 25.71598297 -45.37631699 17.21294338 -39.01171875 8.32421875 C-29.42467224 -2.75012638 -13.43297985 -7.20979145 0 0 Z " fill="#FEE97D" transform="translate(332.01171875,360.67578125)"/>
<path d="M0 0 C8.31005663 6.3255655 13.32596098 14.34044045 17 24 C17 25.32 17 26.64 17 28 C1.67676712 30.94542692 -13.5088938 31.33352791 -29.0625 31.375 C-30.02802795 31.38249268 -30.99355591 31.38998535 -31.98834229 31.39770508 C-46.22501603 31.48811771 -59.94860923 30.28687851 -74 28 C-75.61454561 23.15636316 -73.18604032 19.42475631 -71 15 C-63.92345146 3.61245062 -54.21157518 -4.26838951 -41.421875 -8.27734375 C-26.49965594 -11.42872563 -12.73734853 -8.05065274 0 0 Z " fill="#FEDF31" transform="translate(285,481)"/>
<path d="M0 0 C0.07516846 0.60247559 0.15033691 1.20495117 0.2277832 1.82568359 C1.11454039 8.88890904 2.04259952 15.94601005 3 23 C3.11214844 23.83611816 3.22429687 24.67223633 3.33984375 25.53369141 C4.70605697 35.45771241 6.91497531 44.83207835 10.01879883 54.3659668 C12.62663862 62.46252394 12.62663862 62.46252394 12 66 C6.21915099 69.85389934 -0.79206007 69.7794928 -7.48828125 68.5390625 C-16.63372891 66.12113699 -24.82455195 61.06296937 -30 53 C-34.25093753 44.18475454 -36.93269018 34.99974318 -34.24609375 25.26953125 C-30.05368665 14.40215441 -23.41727847 6.74374803 -12.859375 1.7265625 C-8.49439714 0.02091989 -4.69873578 -0.0903603 0 0 Z " fill="#FDDF30" transform="translate(154,272)"/>
<path d="M0 0 C4.72099732 3.01785272 8.82944542 7.94876728 10.8515625 13.18359375 C11.71840197 19.87659468 11.99597443 26.36353753 8.3515625 32.24609375 C4.34772138 37.34102901 -0.74359837 40.93477377 -7.1484375 42.18359375 C-13.67528711 42.93197312 -18.76295074 42.04660113 -24.1484375 38.18359375 C-29.62720382 33.17585259 -33.18492567 27.28770327 -33.5859375 19.74609375 C-33.3344106 13.82012001 -31.34345866 9.46857479 -27.2421875 5.19921875 C-19.19123756 -2.07066889 -10.43979067 -4.48953961 0 0 Z " fill="#FEE97D" transform="translate(385.1484375,286.81640625)"/>
<path d="M0 0 C10.40632951 1.12441272 18.88587807 3.92615712 26 12 C32.8053489 21.75581607 34.01549535 30.3342551 33 42 C32.17160251 45.71122077 30.91539883 48.72586512 29 52 C28.5875 52.71542969 28.175 53.43085938 27.75 54.16796875 C24.00191081 59.84334243 19.03014145 63.00196357 13 66 C12.67 66 12.34 66 12 66 C11.82871582 65.33991943 11.65743164 64.67983887 11.48095703 63.99975586 C10.69651386 60.97877571 9.91076738 57.95813598 9.125 54.9375 C8.85558594 53.89916016 8.58617187 52.86082031 8.30859375 51.79101562 C7.21825961 47.60253692 6.12532633 43.42548512 4.90234375 39.2734375 C3.84452497 35.43598235 3.09541223 31.61068657 2.4375 27.6875 C2.24353638 26.53628662 2.24353638 26.53628662 2.0456543 25.36181641 C0.7098968 16.94389491 0.29167647 8.50890681 0 0 Z " fill="#FEE45A" transform="translate(154,272)"/>
<path d="M0 0 C4.50503185 3.30626801 8.5369245 7.81736909 9.8203125 13.3359375 C10.79374478 20.89670602 9.38267266 26.21936673 4.8203125 32.3359375 C2.3828125 34.7109375 2.3828125 34.7109375 -0.1796875 36.3359375 C-1.0665625 36.9134375 -1.9534375 37.4909375 -2.8671875 38.0859375 C-8.76461592 40.31138219 -14.62097047 40.35508952 -20.4296875 37.7734375 C-25.39569262 34.93859247 -28.66476647 30.88375923 -31.5546875 26.0234375 C-33.10746827 19.34648018 -32.95620958 13.18337335 -29.515625 7.15625 C-22.38504776 -2.55968272 -10.80831925 -6.16993123 0 0 Z " fill="#FDDF31" transform="translate(101.1796875,200.6640625)"/>
</svg>
